<?xml version="1.0" standalone="no"?>
<!DOCTYPE svg PUBLIC "-//W3C//DTD SVG 20010904//EN"
 "http://www.w3.org/TR/2001/REC-SVG-20010904/DTD/svg10.dtd">
<svg version="1.0" xmlns="http://www.w3.org/2000/svg"
 width="800.000000pt" height="600.000000pt" viewBox="0 0 800.000000 600.000000"
 preserveAspectRatio="xMidYMid meet">

<g transform="translate(0.000000,600.000000) scale(0.100000,-0.100000)"
fill="#000000" stroke="none">
<path d="M4463 5250 c-26 -11 -71 -76 -75 -109 -2 -19 4 -26 34 -37 37 -12 38
-12 55 16 20 34 63 55 94 45 18 -6 21 -4 16 10 -4 9 -7 20 -7 24 0 5 -11 20
-25 35 -25 27 -53 32 -92 16z"/>
<path d="M4578 5052 c-16 -26 -16 -31 -3 -36 18 -7 28 13 23 44 -3 20 -4 19
-20 -8z"/>
<path d="M4320 5058 c-8 -8 -26 -12 -43 -10 -19 3 -28 1 -23 -6 4 -6 -2 -8
-14 -5 -25 7 -104 -43 -94 -59 4 -6 3 -8 -3 -5 -6 4 -17 -1 -24 -10 -22 -26
-74 -43 -111 -37 -31 6 -32 6 -13 -9 16 -12 8 -12 -35 3 -67 23 -113 25 -130
5 -18 -22 -22 -111 -5 -125 8 -7 21 -10 29 -7 8 3 16 1 18 -5 7 -20 61 -18 95
3 18 12 31 24 28 28 -2 5 6 6 19 4 13 -3 27 0 30 6 4 6 2 11 -3 11 -6 0 -11 5
-11 11 0 5 10 3 22 -5 12 -9 28 -16 36 -16 7 0 60 23 117 50 57 28 112 50 122
50 22 0 98 109 85 122 -17 17 -78 21 -92 6z"/>
<path d="M4505 4944 l-27 -35 32 3 c20 2 38 12 47 25 13 19 12 23 -5 32 -17 9
-24 5 -47 -25z"/>
<path d="M5235 3983 c-331 -28 -426 -37 -575 -54 -96 -12 -180 -24 -186 -28
-8 -4 22 -92 89 -261 l100 -255 43 -2 c47 -2 104 -28 151 -67 24 -20 33 -23
43 -13 12 10 12 9 1 -6 -12 -15 -11 -21 5 -40 11 -12 22 -24 25 -27 3 -3 8
-13 12 -22 3 -10 13 -18 21 -18 9 0 13 -6 10 -15 -3 -8 1 -28 10 -46 13 -26
13 -29 1 -19 -8 7 -15 17 -15 22 0 10 -45 58 -55 58 -3 0 -2 -12 1 -27 7 -26
6 -27 -10 -14 -29 24 -56 21 -56 -6 0 -22 -1 -23 -16 -8 -20 20 -73 47 -84 43
-6 -2 240 -662 252 -674 6 -5 320 208 415 282 213 167 513 445 513 477 0 8
-43 101 -95 207 -52 106 -95 198 -95 205 0 8 26 15 75 20 45 4 81 13 90 22 17
17 20 70 5 108 -12 32 -67 58 -92 44 -26 -14 -22 -27 11 -34 16 -3 36 -14 45
-24 15 -17 15 -20 -4 -44 -25 -32 -123 -56 -152 -38 -16 10 -23 2 -58 -69 -25
-51 -43 -103 -49 -142 -11 -82 -50 -108 -166 -108 l-50 0 24 -19 c40 -31 142
-61 204 -61 l57 0 48 -96 47 -96 -75 -69 c-41 -38 -82 -71 -91 -74 -9 -3 -36
6 -59 19 l-43 24 -45 -46 c-41 -44 -42 -44 -8 -4 20 23 36 46 36 51 0 5 -13
12 -30 16 -27 6 -30 11 -32 48 l-1 42 -6 -49 c-6 -53 -6 -54 -39 24 -10 23
-10 22 -5 -8 l6 -33 -53 7 c-41 5 -51 4 -45 -6 4 -6 -5 -4 -19 5 -22 15 -31
16 -52 6 -14 -6 -30 -11 -37 -10 -7 0 -3 4 8 9 15 6 7 9 -31 9 -62 1 -73 17
-42 58 l22 28 -25 -22 -24 -22 -29 70 c-25 60 -31 68 -44 57 -13 -11 -14 -11
-3 7 10 15 10 27 1 50 -11 29 -12 29 -26 11 -8 -11 -14 -15 -14 -9 0 7 5 15
10 18 6 3 10 13 10 21 0 8 -4 12 -10 9 -5 -3 -7 0 -4 8 3 8 -11 52 -30 98 -77
188 -126 312 -124 315 2 1 95 12 208 25 l205 22 50 45 c28 25 77 58 110 73
l60 29 -90 -2 c-49 -1 -108 -3 -130 -5z m-299 -881 c-11 -10 -15 4 -8 28 l7
25 3 -23 c2 -13 1 -26 -2 -30z m125 -17 c47 -9 52 -19 5 -12 -22 4 -44 12 -50
18 -8 9 -8 10 0 6 6 -3 26 -9 45 -12z m92 -12 c-7 -2 -19 -2 -25 0 -7 3 -2 5
12 5 14 0 19 -2 13 -5z m166 -47 c-3 -3 -11 5 -18 17 -13 21 -12 21 5 5 10
-10 16 -20 13 -22z m72 -43 c-6 -10 -18 -35 -27 -56 -10 -24 -20 -34 -24 -27
-6 9 -15 8 -36 -3 -18 -9 -36 -11 -49 -6 -18 7 -18 8 5 8 35 1 88 36 108 71 9
16 20 30 25 30 4 0 3 -8 -2 -17z m-471 -46 c0 -12 0 -11 -24 28 l-17 30 20
-24 c12 -13 21 -28 21 -34z m159 -24 c2 -2 0 -3 -6 -3 -6 0 -21 9 -34 21 l-24
20 30 -17 c17 -10 32 -19 34 -21z m108 31 c-3 -3 -12 -4 -19 -1 -8 3 -5 6 6 6
11 1 17 -2 13 -5z m218 -4 c-3 -5 -12 -10 -18 -10 -7 0 -6 4 3 10 19 12 23 12
15 0z m-450 -70 c10 -11 16 -20 13 -20 -3 0 -13 9 -23 20 -10 11 -16 20 -13
20 3 0 13 -9 23 -20z m228 -32 c-5 -10 -62 -9 -87 1 -11 4 4 7 37 7 30 -1 53
-4 50 -8z m-156 -4 c-3 -3 -12 -4 -19 -1 -8 3 -5 6 6 6 11 1 17 -2 13 -5z"/>
<path d="M5345 2930 c-3 -5 -1 -10 4 -10 6 0 11 5 11 10 0 6 -2 10 -4 10 -3 0
-8 -4 -11 -10z"/>
<path d="M6447 3841 c-121 -215 -254 -408 -413 -597 -52 -62 -94 -114 -94
-117 0 -13 106 -29 153 -23 93 12 201 38 232 57 17 9 76 64 132 121 l102 104
-5 44 c-4 41 -3 42 7 18 6 -16 15 -28 20 -28 12 0 125 133 231 273 93 123 113
170 85 199 -14 13 -137 37 -282 53 -27 4 -61 8 -75 11 -24 4 -31 -5 -93 -115z"/>
<path d="M3445 3913 c-16 -2 -47 -8 -67 -13 l-37 -11 30 -43 31 -43 96 29 c54
16 103 37 110 46 11 15 8 18 -20 29 -32 11 -83 14 -143 6z"/>
<path d="M3179 3829 c-42 -22 -86 -49 -97 -59 -12 -11 -24 -20 -28 -20 -3 0
-23 -13 -43 -29 -48 -38 -141 -90 -183 -101 -54 -16 -186 -29 -298 -31 -58 0
-136 -5 -175 -11 -103 -15 -240 -62 -230 -79 3 -4 0 -11 -6 -15 -8 -4 -9 -3
-5 4 14 22 -18 12 -83 -27 -97 -58 -126 -95 -146 -186 -15 -70 -79 -104 -210
-112 -49 -3 -102 -12 -117 -19 -35 -18 -87 -84 -132 -167 l-36 -67 28 -11 c36
-15 175 -4 282 21 85 21 213 43 325 57 l60 8 5 50 c3 28 11 60 18 73 27 49
287 233 481 341 211 118 540 265 729 326 28 9 52 20 52 25 0 16 -71 70 -93 70
-12 0 -56 -19 -98 -41z m-1128 -392 c-10 -9 -11 -8 -5 6 3 10 9 15 12 12 3 -3
0 -11 -7 -18z"/>
<path d="M3617 3726 c-32 -10 -53 -31 -129 -131 -50 -66 -94 -125 -99 -131 -6
-7 65 12 156 42 91 30 167 54 169 54 2 0 23 -55 47 -122 28 -78 45 -113 47
-98 4 28 -129 400 -143 399 -5 -1 -27 -6 -48 -13z"/>
<path d="M3330 3636 c-344 -118 -662 -272 -877 -424 -35 -24 -63 -48 -63 -53
0 -11 278 -781 285 -787 17 -18 8 25 -39 189 -30 101 -59 197 -65 212 -23 58
-8 117 37 154 8 7 26 54 39 104 25 98 75 214 124 290 31 49 78 79 122 79 15 0
38 13 55 30 32 32 76 39 113 19 15 -8 18 -14 9 -24 -8 -9 -7 -14 5 -19 26 -10
16 -24 -22 -30 -75 -14 -75 -13 -47 -53 32 -47 30 -63 -10 -136 -19 -34 -49
-98 -66 -142 -30 -74 -31 -81 -14 -90 107 -62 173 -212 174 -397 0 -100 4
-108 49 -108 132 0 290 -88 382 -211 23 -30 49 -58 60 -63 26 -12 24 -31 -6
-54 -14 -12 -25 -30 -25 -44 0 -122 -116 -215 -300 -242 -41 -6 -159 -56 -132
-56 99 0 924 238 965 279 4 4 -10 17 -31 29 l-38 21 -134 -43 c-192 -62 -200
-63 -207 -34 -12 46 -103 215 -166 308 -35 52 -123 176 -196 275 -73 98 -148
211 -167 250 -59 119 -61 257 -9 424 l25 79 78 30 c42 16 87 33 100 37 22 6
22 8 8 24 -15 16 -12 23 37 93 76 105 91 128 81 128 -5 0 -65 -20 -134 -44z"/>
<path d="M4570 3470 c-13 -8 -13 -10 2 -10 9 0 18 -6 21 -12 2 -7 7 -10 11 -7
3 3 0 13 -7 22 -8 12 -16 14 -27 7z"/>
<path d="M4597 3417 c-3 -8 3 -18 13 -25 15 -9 17 -8 13 9 -7 25 -19 33 -26
16z"/>
<path d="M4590 3310 c0 -15 6 -31 13 -33 10 -4 10 -6 0 -6 -7 -1 -13 -14 -13
-30 0 -30 1 -31 50 -19 27 6 38 30 28 59 -11 33 -28 48 -57 54 -17 3 -21 -1
-21 -25z m30 -2 c0 -6 3 -8 7 -5 11 12 33 -15 33 -41 0 -14 -3 -23 -6 -19 -3
3 -18 1 -32 -4 -22 -8 -23 -8 -12 6 7 8 19 15 26 15 8 0 14 5 14 11 0 6 -6 9
-14 6 -8 -3 -18 5 -25 19 -6 15 -7 24 -1 24 6 0 10 -5 10 -12z"/>
<path d="M5315 3320 c10 -11 20 -20 23 -20 3 0 -3 9 -13 20 -10 11 -20 20 -23
20 -3 0 3 -9 13 -20z"/>
<path d="M4690 3320 c0 -5 7 -28 16 -50 13 -31 21 -39 34 -35 10 3 37 -1 61
-9 24 -8 45 -14 46 -12 2 2 -14 19 -36 39 -45 40 -121 83 -121 67z"/>
<path d="M5301 3238 c9 -7 28 -31 43 -52 14 -21 26 -35 26 -29 0 15 -49 77
-68 86 -15 8 -16 7 -1 -5z"/>
<path d="M5169 3219 l-24 -20 28 17 c15 9 27 18 27 20 0 8 -8 4 -31 -17z"/>
<path d="M5400 3195 c0 -5 5 -17 10 -25 5 -8 10 -10 10 -5 0 6 -5 17 -10 25
-5 8 -10 11 -10 5z"/>
<path d="M4690 3160 c0 -5 -3 -9 -7 -9 -25 4 -43 -2 -37 -13 4 -7 3 -8 -5 -4
-20 13 -68 -4 -78 -27 -10 -25 -6 -57 7 -57 5 0 7 -7 4 -15 -4 -9 0 -15 7 -15
10 -1 8 -5 -4 -14 -10 -8 -14 -17 -8 -20 5 -3 11 0 13 6 3 7 12 -3 20 -22 27
-59 29 -70 12 -70 -11 0 -13 7 -8 26 5 18 3 25 -3 21 -6 -4 -14 0 -17 9 -5 13
-9 14 -21 4 -8 -7 -12 -16 -9 -21 3 -5 0 -9 -5 -9 -12 0 -14 13 -4 24 12 12
12 36 0 36 -8 0 -8 3 1 9 12 7 8 61 -5 61 -2 0 -20 -12 -39 -27 -33 -27 -48
-73 -23 -73 6 0 9 9 6 20 -3 11 -1 20 4 20 5 0 9 -8 10 -17 0 -10 2 -26 4 -35
3 -15 0 -16 -17 -7 -22 12 -31 9 -20 -6 15 -22 48 -33 66 -23 10 5 20 7 23 4
4 -3 1 -6 -5 -6 -23 0 -12 -18 18 -30 17 -7 37 -25 45 -39 10 -18 14 -21 15
-9 0 9 -7 23 -15 32 -8 8 -15 18 -15 21 0 4 7 5 15 1 14 -5 17 -2 19 27 1 15
22 38 33 35 18 -4 73 14 73 25 0 8 3 7 9 -2 6 -9 14 -11 26 -4 15 9 15 11 2
16 -9 3 -13 13 -10 25 2 11 -1 23 -8 27 -8 5 -10 4 -5 -3 4 -7 3 -19 -2 -27
-5 -11 -8 2 -9 38 0 30 -6 63 -12 73 -10 16 -12 16 -7 2 3 -11 -2 -22 -15 -29
-19 -10 -20 -9 -9 11 6 12 9 28 6 36 -3 8 -1 14 5 14 6 0 7 5 4 10 -3 6 -10
10 -16 10 -5 0 -9 -4 -9 -10z m-4 -47 c-10 -10 -19 5 -10 18 6 11 8 11 12 0 2
-7 1 -15 -2 -18z m-78 -25 c11 -14 10 -16 -8 -11 -11 3 -23 10 -27 16 -3 6 -1
7 5 3 7 -4 12 -2 12 5 0 7 1 10 3 8 1 -2 8 -12 15 -21z m119 -26 c-10 -10 -17
-23 -17 -28 0 -5 5 -2 10 6 5 8 10 11 10 5 0 -5 -4 -16 -9 -23 -6 -11 -10 -10
-15 3 -4 11 -12 15 -22 11 -25 -10 -11 17 17 31 35 18 45 16 26 -5z m-67 -27
c0 -16 -6 -25 -16 -25 -13 0 -14 3 -5 13 8 10 7 17 -1 25 -9 9 -8 12 5 12 11
0 17 -8 17 -25z m-110 -20 c0 -5 -5 -3 -10 5 -8 13 -10 12 -10 -2 0 -10 -5
-18 -11 -18 -5 0 -8 3 -6 8 2 4 7 16 11 27 6 16 9 17 16 5 6 -8 10 -19 10 -25z
m180 -31 c0 -8 -4 -12 -10 -9 -5 3 -10 10 -10 16 0 5 5 9 10 9 6 0 10 -7 10
-16z m-202 -19 c-3 -3 -9 2 -12 12 -6 14 -5 15 5 6 7 -7 10 -15 7 -18z m102
15 c0 -5 -5 -10 -11 -10 -5 0 -7 5 -4 10 3 6 8 10 11 10 2 0 4 -4 4 -10z m70
-10 c0 -5 -7 -10 -16 -10 -8 0 -12 5 -9 10 3 6 10 10 16 10 5 0 9 -4 9 -10z"/>
<path d="M5779 2971 c-70 -69 -167 -160 -217 -201 -50 -41 -91 -78 -91 -82 -1
-5 16 -8 37 -8 20 0 65 -9 100 -20 l63 -20 62 42 c158 106 523 395 512 406 -2
2 -33 -3 -70 -13 -69 -17 -64 -17 -250 19 -15 3 -53 -29 -146 -123z"/>
<path d="M1735 2909 c-22 -5 -66 -19 -98 -30 -49 -19 -73 -21 -166 -17 l-108
4 -29 -55 c-16 -31 -68 -112 -116 -181 -49 -69 -94 -136 -101 -150 -6 -13 -22
-35 -33 -47 -13 -14 -20 -33 -18 -46 2 -12 1 -16 -2 -9 -7 16 -33 -14 -34 -40
0 -9 -6 -19 -12 -21 -8 -4 -7 -6 4 -6 11 -1 15 -7 11 -21 -3 -11 -9 -20 -14
-20 -5 0 -9 -5 -9 -11 0 -6 10 -8 23 -5 12 3 16 3 10 0 -19 -8 -16 -20 5 -21
63 -5 66 -7 62 -46 -1 -12 9 -21 30 -28 17 -6 29 -13 27 -16 -4 -3 -50 15 -90
35 -4 2 -4 -3 -1 -12 3 -9 10 -14 14 -11 5 3 13 -2 18 -11 5 -9 12 -15 15 -15
25 3 29 -2 13 -14 -11 -8 -17 -18 -13 -21 4 -4 15 2 24 13 19 20 53 37 53 26
0 -4 -8 -16 -17 -27 -17 -20 -17 -20 0 -7 15 12 20 11 35 -3 23 -20 32 -20 32
-2 0 8 -8 13 -17 12 -10 0 -18 5 -18 12 0 8 -8 20 -18 27 -12 8 -14 15 -7 20
5 3 8 10 6 14 -3 4 1 8 9 8 10 0 12 -4 5 -12 -8 -9 -6 -14 5 -19 8 -3 14 -11
13 -18 -2 -9 7 -12 27 -11 23 2 26 1 11 -6 -14 -5 -16 -10 -7 -15 9 -6 8 -12
-5 -27 -12 -13 -20 -16 -25 -8 -4 7 -16 8 -30 4 l-24 -8 28 -10 c19 -6 30 -18
34 -38 4 -24 10 -28 29 -25 15 3 27 -1 34 -12 5 -10 10 -12 10 -4 0 17 20 15
20 -2 0 -8 -7 -16 -15 -20 -8 -3 -15 -11 -15 -17 0 -8 5 -7 17 2 9 8 17 12 17
9 1 -2 11 5 23 15 l23 19 -23 14 c-15 9 -16 12 -3 8 15 -5 17 -2 12 18 -4 15
-1 28 6 32 8 5 9 2 5 -9 -3 -9 -2 -19 2 -21 5 -3 7 -19 5 -36 -4 -36 -4 -36
46 -10 22 11 46 20 55 20 8 0 15 4 15 10 0 5 8 9 18 8 24 -3 102 23 102 34 0
5 4 7 9 4 5 -4 17 -3 26 0 13 6 14 9 3 16 -9 6 -6 7 10 3 13 -4 28 -2 35 3 7
5 28 13 47 17 19 4 41 11 50 16 8 4 78 29 155 55 77 25 152 53 167 60 15 8 34
11 42 8 9 -3 16 -1 16 6 0 6 5 8 10 5 24 -15 19 30 -14 128 -41 124 -73 278
-84 396 -7 80 -9 86 -37 102 -73 43 -222 60 -320 38z m-629 -631 c-1 -17 4
-23 20 -22 16 0 20 -4 16 -18 -2 -10 -9 -18 -14 -18 -5 0 -7 4 -3 9 3 5 -4 12
-15 16 -11 3 -20 11 -20 17 0 5 -6 8 -14 5 -27 -11 -26 7 1 19 16 7 29 13 29
13 1 1 1 -9 0 -21z m68 -94 c5 -14 4 -15 -9 -4 -17 14 -19 20 -6 20 5 0 12 -7
15 -16z m171 -84 c-3 -5 0 -10 9 -10 8 0 16 6 19 13 2 6 8 9 11 5 9 -8 -30
-48 -46 -48 -9 0 -8 4 2 10 10 6 11 10 3 10 -7 0 -13 7 -13 15 0 8 5 15 11 15
5 0 7 -4 4 -10z m185 -4 c0 -2 -9 -6 -20 -9 -11 -3 -18 -1 -14 4 5 9 34 13 34
5z m-235 -26 c3 -5 -1 -10 -10 -10 -9 0 -13 5 -10 10 3 6 8 10 10 10 2 0 7 -4
10 -10z m185 6 c0 -3 -4 -8 -10 -11 -5 -3 -10 -1 -10 4 0 6 5 11 10 11 6 0 10
-2 10 -4z m-160 -36 c0 -5 7 -7 15 -4 8 4 15 1 15 -7 0 -7 -3 -9 -7 -6 -3 4
-12 -1 -20 -11 -14 -16 -14 -16 -9 1 5 15 2 17 -14 12 -21 -7 -28 10 -7 18 20
8 27 8 27 -3z m107 -6 c-3 -3 -12 -4 -19 -1 -8 3 -5 6 6 6 11 1 17 -2 13 -5z
m-162 -13 c3 -5 1 -12 -5 -16 -5 -3 -10 1 -10 9 0 18 6 21 15 7z"/>
<path d="M4252 2888 c-17 -17 -15 -35 4 -46 15 -8 15 -10 0 -15 -10 -4 -13
-12 -9 -23 6 -15 7 -15 20 2 7 10 13 13 13 8 0 -6 -5 -15 -12 -22 -9 -9 -7
-12 13 -13 22 0 22 -1 4 -8 -13 -6 -23 -4 -28 6 -5 7 -13 10 -19 7 -8 -5 -9 3
-5 24 4 21 3 32 -5 32 -6 0 -8 -3 -5 -7 4 -3 0 -17 -8 -29 -9 -14 -11 -25 -5
-29 5 -3 0 -15 -11 -26 -11 -11 -17 -25 -12 -32 8 -12 9 -17 12 -37 0 -5 5
-10 11 -10 5 0 7 7 4 15 -5 11 -2 13 10 9 11 -4 16 -1 16 10 0 9 6 16 13 17 6
0 23 14 36 31 20 24 22 31 10 39 -11 7 -11 9 4 9 9 0 17 5 17 10 0 6 5 10 11
10 6 0 17 7 25 15 14 13 14 15 0 15 -9 0 -25 -9 -37 -21 -23 -23 -35 -19 -25
7 4 9 9 14 12 11 8 -7 34 17 34 31 0 16 -30 23 -50 12 -24 -13 -33 -13 -25 0
8 14 2 13 -13 -2z m73 -8 c3 -5 -1 -10 -10 -10 -9 0 -13 5 -10 10 3 6 8 10 10
10 2 0 7 -4 10 -10z m-45 -20 c0 -5 -5 -10 -11 -10 -5 0 -7 5 -4 10 3 6 8 10
11 10 2 0 4 -4 4 -10z m-30 -110 c0 -5 -5 -10 -11 -10 -5 0 -7 5 -4 10 3 6 8
10 11 10 2 0 4 -4 4 -10z"/>
<path d="M4462 2776 c2 -22 8 -30 26 -31 28 -2 28 0 -4 33 l-25 27 3 -29z"/>
<path d="M4551 2763 c7 -12 15 -20 18 -17 3 2 -3 12 -13 22 -17 16 -18 16 -5
-5z"/>
<path d="M4580 2731 c0 -6 5 -13 10 -16 6 -3 10 1 10 9 0 9 -4 16 -10 16 -5 0
-10 -4 -10 -9z"/>
<path d="M5412 2639 c-11 -4 -46 -28 -78 -52 -170 -129 -418 -280 -664 -405
-102 -52 -187 -98 -189 -104 -1 -5 4 -17 14 -28 16 -17 19 -17 108 20 307 125
617 285 911 468 l139 87 -49 7 c-82 11 -172 14 -192 7z"/>
<path d="M4102 2543 c-10 -18 -4 -43 42 -170 29 -81 56 -158 60 -169 7 -22 5
-24 -79 -55 l-30 -11 45 -23 c41 -21 48 -22 72 -9 15 8 34 14 44 14 11 0 14 5
9 18 -30 76 -143 391 -147 407 -4 19 -4 19 -16 -2z"/>
<path d="M972 2260 c-14 -23 -15 -30 -4 -30 5 0 14 11 20 25 14 30 2 34 -16 5z"/>
<path d="M1001 2216 c-8 -10 -9 -15 -1 -18 6 -2 12 -13 13 -26 0 -12 5 -22 10
-22 6 0 0 68 -8 78 -1 1 -7 -4 -14 -12z"/>
<path d="M2204 2218 c3 -9 2 -19 -2 -21 -4 -2 -2 -2 5 -1 6 2 13 -5 15 -14 3
-13 5 -12 10 6 3 12 2 20 -2 17 -5 -3 -14 3 -20 12 -10 16 -11 16 -6 1z"/>
<path d="M1066 2205 c4 -8 8 -15 10 -15 2 0 4 7 4 15 0 8 -4 15 -10 15 -5 0
-7 -7 -4 -15z"/>
<path d="M975 2160 c3 -5 8 -10 11 -10 2 0 4 5 4 10 0 6 -5 10 -11 10 -5 0 -7
-4 -4 -10z"/>
<path d="M2266 2107 c3 -10 9 -15 12 -12 3 3 0 11 -7 18 -10 9 -11 8 -5 -6z"/>
<path d="M1058 2093 c7 -3 16 -2 19 1 4 3 -2 6 -13 5 -11 0 -14 -3 -6 -6z"/>
<path d="M1150 2076 c0 -8 4 -17 9 -20 5 -4 7 3 4 14 -6 23 -13 26 -13 6z"/>
<path d="M1070 2071 c0 -6 4 -13 10 -16 6 -3 7 1 4 9 -7 18 -14 21 -14 7z"/>
<path d="M2270 2070 c-9 -6 -10 -10 -3 -10 6 0 15 5 18 10 8 12 4 12 -15 0z"/>
<path d="M2295 2049 c-4 -6 -5 -12 -2 -15 2 -3 7 2 10 11 7 17 1 20 -8 4z"/>
<path d="M4365 2041 l-40 -18 39 -17 c46 -19 36 -19 82 0 l39 16 -24 19 c-29
23 -45 23 -96 0z"/>
<path d="M2260 2041 c0 -6 4 -13 10 -16 6 -3 7 1 4 9 -7 18 -14 21 -14 7z"/>
<path d="M1152 2020 c0 -14 2 -19 5 -12 2 6 2 18 0 25 -3 6 -5 1 -5 -13z"/>
<path d="M1188 2026 c-10 -7 -15 -16 -11 -19 10 -10 41 -8 48 2 3 6 -5 8 -17
6 -22 -4 -22 -4 -4 10 11 8 16 15 10 15 -5 0 -17 -7 -26 -14z"/>
<path d="M2310 1996 c0 -2 7 -7 16 -10 8 -3 12 -2 9 4 -6 10 -25 14 -25 6z"/>
<path d="M4202 1975 c-75 -32 -309 -110 -466 -155 -92 -27 -171 -51 -174 -54
-3 -3 37 -5 89 -3 52 1 97 6 100 10 4 5 26 10 50 10 24 1 46 5 49 9 10 12 60
21 60 9 0 -6 7 -8 15 -5 8 4 15 2 15 -3 0 -5 7 -10 16 -10 15 0 15 1 0 12 -24
18 -21 22 30 41 38 14 47 15 54 4 5 -8 7 -17 5 -20 -2 -4 6 -6 18 -6 13 1 21
-4 20 -11 -4 -18 8 -16 35 6 27 23 29 35 3 21 -27 -14 -30 -13 -24 10 3 11 0
20 -6 20 -5 0 -8 -6 -5 -13 2 -7 -3 -13 -14 -14 -30 -2 -21 25 11 37 37 13 35
13 39 -6 2 -13 7 -11 27 7 13 12 37 22 53 22 16 0 24 3 18 7 -6 4 7 15 30 25
47 21 49 30 12 49 -23 12 -32 12 -60 1z"/>
<path d="M1235 1970 c3 -5 8 -10 11 -10 2 0 4 5 4 10 0 6 -5 10 -11 10 -5 0
-7 -4 -4 -10z"/>
<path d="M1265 1961 c-3 -5 -1 -12 5 -16 5 -3 10 1 10 9 0 18 -6 21 -15 7z"/>
<path d="M2830 1937 c0 -15 64 -173 74 -183 8 -7 39 -6 106 5 69 11 85 17 60
19 -19 2 -42 9 -50 16 -8 7 -34 18 -57 25 -32 9 -50 22 -72 54 -28 41 -61 76
-61 64z"/>
<path d="M2359 1928 c-5 -16 -4 -46 2 -42 4 2 7 13 6 24 -1 17 -5 26 -8 18z"/>
<path d="M3970 1810 c0 -5 7 -10 15 -10 8 0 15 5 15 10 0 6 -7 10 -15 10 -8 0
-15 -4 -15 -10z"/>
<path d="M3880 1790 c0 -5 5 -10 10 -10 6 0 10 5 10 10 0 6 -4 10 -10 10 -5 0
-10 -4 -10 -10z"/>
<path d="M3795 1769 c-11 -16 -1 -19 13 -3 7 8 8 14 3 14 -5 0 -13 -5 -16 -11z"/>
<path d="M3843 1760 c-28 -11 -29 -15 -4 -17 11 -1 22 5 25 13 3 8 4 14 3 13
-1 0 -12 -4 -24 -9z"/>
<path d="M3898 1756 c-20 -14 -25 -31 -7 -20 6 3 14 2 18 -4 4 -7 12 -8 21 -2
13 8 12 10 -2 10 -21 0 -24 16 -5 23 6 3 8 6 2 6 -5 0 -18 -6 -27 -13z"/>
<path d="M3730 1730 c0 -5 7 -7 15 -4 8 4 15 8 15 10 0 2 -7 4 -15 4 -8 0 -15
-4 -15 -10z"/>
<path d="M3720 1704 c0 -2 9 -8 20 -14 11 -6 20 -7 20 -2 0 6 -9 12 -20 15
-11 3 -20 3 -20 1z"/>
<path d="M5544 1489 c-3 -5 3 -6 13 -2 15 5 16 4 7 -8 -9 -11 -9 -17 2 -27 12
-10 14 -10 14 2 0 8 5 18 12 22 8 5 9 0 6 -14 -4 -15 -2 -22 8 -22 8 0 14 5
14 10 0 6 9 1 20 -10 24 -24 42 -26 34 -5 -4 8 -12 15 -20 15 -8 0 -14 5 -14
10 0 6 -7 10 -15 10 -8 0 -12 6 -9 13 5 15 -62 21 -72 6z"/>
<path d="M5505 1441 c-3 -5 0 -13 7 -17 6 -4 14 -2 16 4 2 7 8 10 13 6 5 -3 9
0 9 5 0 13 -37 15 -45 2z"/>
<path d="M5620 1430 c0 -6 -4 -8 -10 -5 -5 3 -10 0 -10 -7 0 -7 -3 -24 -7 -36
-6 -24 -6 -24 25 -8 17 9 33 12 37 7 3 -5 -3 -11 -12 -13 -16 -3 -17 -4 -1
-10 10 -4 25 1 39 13 20 17 19 24 -3 20 -5 0 -8 4 -8 9 0 14 -38 12 -43 -2 -2
-7 -8 -9 -13 -5 -5 5 -1 14 9 22 12 8 14 15 8 20 -6 3 -11 1 -11 -5z"/>
<path d="M5540 1410 c0 -6 4 -9 9 -6 5 3 12 -2 15 -11 5 -12 9 -14 18 -5 14
14 11 17 -19 26 -15 5 -23 3 -23 -4z"/>
<path d="M5666 1339 c4 -7 1 -10 -7 -7 -16 5 -70 -41 -67 -57 2 -7 -8 -22 -22
-33 -14 -12 -19 -21 -12 -22 22 0 53 20 47 31 -4 5 -1 9 4 9 14 0 14 -17 1
-25 -6 -4 -5 -12 4 -20 20 -20 72 -1 80 28 10 38 7 65 -10 71 -8 3 -12 11 -8
17 4 8 9 7 15 -2 7 -11 9 -10 9 4 0 11 -8 17 -21 17 -12 0 -18 -4 -13 -11z
m-6 -29 c0 -5 5 -9 12 -7 6 1 14 -6 16 -15 2 -10 -1 -18 -7 -18 -6 0 -11 5
-11 10 0 6 -7 10 -15 10 -8 0 -15 7 -15 15 0 8 5 15 10 15 6 0 10 -4 10 -10z
m-40 -30 c0 -5 -4 -10 -10 -10 -5 0 -10 5 -10 10 0 6 5 10 10 10 6 0 10 -4 10
-10z m65 -21 c5 1 1 -7 -9 -18 -20 -22 -46 -28 -46 -11 0 6 8 10 18 11 14 0
14 2 2 7 -8 4 -16 13 -18 20 -2 10 2 10 20 0 13 -7 27 -11 33 -9z"/>
<path d="M5465 1280 c-3 -5 -1 -10 4 -10 6 0 11 5 11 10 0 6 -2 10 -4 10 -3 0
-8 -4 -11 -10z"/>
<path d="M5467 1250 c-26 -16 -54 -30 -61 -30 -8 0 -16 -7 -20 -15 -4 -12 -2
-13 12 -7 9 5 23 7 31 4 8 -3 11 0 7 7 -4 7 0 11 11 11 14 -1 12 -6 -12 -25
-32 -26 -22 -35 11 -10 22 16 48 20 39 5 -3 -5 0 -10 8 -10 8 0 18 7 21 16 9
23 8 24 -11 17 -17 -6 -17 -6 -1 10 18 18 29 22 27 10 -3 -20 2 -30 16 -30 11
0 12 4 4 13 -8 10 -5 18 10 31 28 23 26 31 -4 25 -14 -2 -25 -8 -25 -13 0 -5
-5 -9 -11 -9 -6 0 -9 7 -5 15 7 20 7 20 -47 -15z m23 -20 c-8 -5 -18 -6 -24
-3 -5 4 -1 10 10 13 24 9 34 2 14 -10z"/>
<path d="M5575 1210 c-3 -5 3 -10 15 -10 12 0 18 5 15 10 -3 6 -10 10 -15 10
-5 0 -12 -4 -15 -10z"/>
<path d="M5349 1173 c-13 -16 -12 -17 4 -4 16 13 21 21 13 21 -2 0 -10 -8 -17
-17z"/>
<path d="M5380 1121 c0 -6 5 -13 10 -16 6 -3 10 1 10 9 0 9 -4 16 -10 16 -5 0
-10 -4 -10 -9z"/>
<path d="M5363 1093 c9 -2 17 -9 17 -14 0 -6 -4 -7 -10 -4 -5 3 -10 0 -10 -7
0 -9 -3 -9 -10 2 -8 13 -10 12 -10 -2 0 -10 -5 -18 -11 -18 -5 0 -7 -5 -4 -10
5 -8 11 -8 19 -1 9 7 16 7 24 -1 8 -8 14 -5 21 15 6 15 16 27 23 28 17 1 -32
17 -52 17 -10 0 -9 -2 3 -5z"/>
<path d="M5290 1060 c0 -5 4 -10 9 -10 6 0 13 5 16 10 3 6 -1 10 -9 10 -9 0
-16 -4 -16 -10z"/>
</g>
</svg>
